<svg width="26" height="25" viewBox="0 0 26 25" fill="none" xmlns="http://www.w3.org/2000/svg">
<path d="M13.0002 5.74919C12.753 5.74919 12.5113 5.8225 12.3057 5.95985C12.1002 6.0972 11.9399 6.29242 11.8453 6.52083C11.7507 6.74924 11.726 7.00057 11.7742 7.24305C11.8224 7.48553 11.9415 7.70825 12.1163 7.88307C12.2911 8.05789 12.5138 8.17694 12.7563 8.22517C12.9988 8.2734 13.2501 8.24865 13.4785 8.15404C13.7069 8.05943 13.9022 7.89921 14.0395 7.69365C14.1769 7.48809 14.2502 7.24641 14.2502 6.99919C14.2502 6.66767 14.1185 6.34972 13.8841 6.1153C13.6496 5.88088 13.3317 5.74919 13.0002 5.74919ZM5.88018 17.1667C5.66607 17.2903 5.49343 17.4746 5.38408 17.6964C5.27473 17.9181 5.23359 18.1673 5.26586 18.4124C5.29814 18.6575 5.40237 18.8875 5.56538 19.0734C5.72839 19.2593 5.94286 19.3927 6.18166 19.4566C6.42047 19.5206 6.67288 19.5124 6.90699 19.4329C7.1411 19.3534 7.34638 19.2063 7.49688 19.0102C7.64738 18.814 7.73633 18.5776 7.7525 18.3309C7.76866 18.0842 7.7113 17.8383 7.58768 17.6242C7.42192 17.3371 7.1489 17.1276 6.82868 17.0418C6.50846 16.956 6.16728 17.0009 5.88018 17.1667ZM20.1202 17.1667C19.9061 17.0431 19.6601 16.9857 19.4134 17.0019C19.1667 17.018 18.9304 17.107 18.7342 17.2575C18.5381 17.408 18.391 17.6133 18.3115 17.8474C18.232 18.0815 18.2237 18.3339 18.2877 18.5727C18.3517 18.8115 18.4851 19.026 18.671 19.189C18.8568 19.352 19.0869 19.4562 19.332 19.4885C19.5771 19.5208 19.8263 19.4796 20.048 19.3703C20.2697 19.2609 20.4541 19.0883 20.5777 18.8742C20.7434 18.5871 20.7884 18.2459 20.7026 17.9257C20.6168 17.6055 20.4073 17.3325 20.1202 17.1667ZM23.7627 13.6779C23.0183 12.978 22.1112 12.4747 21.1234 12.2134C20.1356 11.9522 19.0983 11.9413 18.1052 12.1817L17.5814 11.2279C18.324 10.4291 18.8441 9.4494 19.0897 8.38672C19.3354 7.32405 19.298 6.21553 18.9814 5.1718C18.6648 4.12807 18.08 3.18564 17.2853 2.43855C16.4906 1.69146 15.5139 1.16586 14.4527 0.914186C13.5285 0.697532 12.5674 0.692712 11.6411 0.900089C10.7148 1.10747 9.84747 1.52167 9.10393 2.11169C8.36808 2.69581 7.77406 3.43898 7.36641 4.28544C6.95877 5.1319 6.74809 6.05968 6.75018 6.99919C6.74992 8.57676 7.3548 10.0943 8.44018 11.2392L7.91643 12.1767C6.8515 11.9252 5.73916 11.9584 4.69111 12.2729C3.64306 12.5873 2.69619 13.172 1.9456 13.9682C1.19501 14.7644 0.667123 15.744 0.414946 16.8088C0.162769 17.8736 0.195182 18.9859 0.508931 20.0342C0.783187 20.943 1.25967 21.7779 1.90263 22.4763C2.54559 23.1747 3.33835 23.7184 4.22143 24.0667C5.0212 24.3831 5.87797 24.5301 6.73748 24.4982C7.59699 24.4663 8.44051 24.2563 9.21464 23.8814C9.98876 23.5066 10.6766 22.9751 11.2346 22.3206C11.7927 21.6661 12.2087 20.9028 12.4564 20.0792L13.5402 20.0967C13.93 21.371 14.7184 22.4866 15.7894 23.2796C16.8604 24.0725 18.1576 24.5008 19.4902 24.5017C20.8373 24.5004 22.1483 24.0654 23.2289 23.261C24.3096 22.4566 25.1024 21.3256 25.4902 20.0354C25.8302 18.9206 25.8485 17.7324 25.5429 16.6077C25.2373 15.4829 24.6202 14.4674 23.7627 13.6779ZM23.1027 19.2967C22.9429 19.8426 22.6612 20.3451 22.2789 20.7664C21.8967 21.1876 21.4237 21.5166 20.8958 21.7284C20.3679 21.9402 19.7988 22.0295 19.2313 21.9893C18.6639 21.9492 18.113 21.7807 17.6202 21.4967C16.8071 21.0261 16.203 20.2644 15.9302 19.3654C15.7782 18.8499 15.4635 18.3973 15.0333 18.0752C14.603 17.753 14.0802 17.5786 13.5427 17.5779H12.4564C11.919 17.5788 11.3962 17.7533 10.966 18.0754C10.5358 18.3975 10.2211 18.85 10.0689 19.3654C9.91851 19.8574 9.6678 20.313 9.3326 20.7033C8.99741 21.0936 8.58499 21.4102 8.12135 21.6332C7.65771 21.8562 7.1529 21.9808 6.63874 21.999C6.12457 22.0173 5.61221 21.9288 5.13393 21.7392C4.25102 21.3965 3.53092 20.7318 3.1189 19.879C2.70688 19.0263 2.6336 18.049 2.91384 17.1443C3.19409 16.2397 3.80701 15.475 4.62895 15.0045C5.45089 14.534 6.42068 14.3927 7.34268 14.6092C7.86189 14.7346 8.40781 14.6875 8.89789 14.4751C9.38796 14.2626 9.79552 13.8964 10.0589 13.4317L10.6039 12.4892C10.8722 12.0236 10.983 11.4839 10.9197 10.9503C10.8564 10.4167 10.6224 9.91781 10.2527 9.52794C9.90148 9.15167 9.63206 8.7067 9.46143 8.22111C9.2908 7.73551 9.22266 7.21982 9.2613 6.70657C9.29994 6.19332 9.44452 5.69364 9.68594 5.23907C9.92735 4.78449 10.2603 4.38488 10.6639 4.06544C11.4005 3.4728 12.3342 3.18102 13.2772 3.24876C14.2202 3.31651 15.1026 3.73875 15.7469 4.4306C16.3913 5.12244 16.7498 6.03258 16.7504 6.978C16.751 7.92342 16.3936 8.83402 15.7502 9.52669C15.3806 9.91687 15.1467 10.4158 15.0829 10.9494C15.0192 11.483 15.1291 12.023 15.3964 12.4892L15.9402 13.4304C16.2045 13.8946 16.6124 14.2604 17.1024 14.4729C17.5924 14.6855 18.1382 14.7333 18.6577 14.6092C19.2941 14.4583 19.959 14.4772 20.5858 14.664C21.2126 14.8507 21.7794 15.1988 22.2295 15.6734C22.6795 16.1481 22.9971 16.7325 23.1503 17.3684C23.3035 18.0042 23.2871 18.6692 23.1027 19.2967Z" fill="#64FFAB"/>
</svg>
